# File created by Blade
# Date/Time:  Wed Apr 08 16:19:59 2015
# Frame Rate: 120.000 fps
#------------------------------------------------------
:FULLY-SPECIFIED
:DEGREES
2944
root -10.939560 34.237630 -1.366970 373.243337 -72.599274 -462.065663
Spine -72.254244 -22.944698 7.076715
Head -91.845493 2.197677 16.396866
LeftShoulder -13.798930 -0.964190 40.135878
LeftArm 275.169594 -82.207750 -224.495084
LeftForeArm -19.150405 0.000000 -10.393484
LeftHand 18.355640 0.000000 101.920528
LeftHandThumb1 -26.253704 0.000000 33.147579
RightShoulder -21.858021 46.279656 -46.173041
RightArm 32.041272 41.983641 -16.283341
RightForeArm 40.378703 -0.000000 -16.247096
RightHand 27.327349 -0.000000 -92.059917
RightHandThumb1 -24.326973 -0.000000 -32.862282
LeftUpLeg 14.481197 2.235083 21.452286
LeftLeg 35.366196 -0.000000 -0.000000
LeftFoot 41.052187 21.580560 -14.463983
LeftToeBase 20.296739 -0.000000 -0.000000
RightUpLeg -105.753736 -27.604132 0.514590
RightLeg 26.402585 -0.000000 -0.000000
RightFoot 35.278811 -14.589887 1.841298
RightToeBase 32.565590 -0.000000 -0.000000
2945
root -10.808968 34.405955 -1.381885 372.487367 -72.741597 -463.077353
Spine -71.011664 -22.977768 6.654279
Head -91.019372 2.179399 16.275800
LeftShoulder -13.929608 -0.569068 40.010358
LeftArm 273.823021 -82.771910 -223.013602
LeftForeArm -19.236859 -0.000000 -10.527854
LeftHand 18.330597 -0.000000 102.153264
LeftHandThumb1 -26.253704 0.000000 33.147579
RightShoulder -21.866668 46.039445 -45.951063
RightArm 33.150204 41.893018 -15.473677
RightForeArm 40.618699 -0.000000 -16.502016
RightHand 27.504836 -0.000000 -92.183125
RightHandThumb1 -24.326973 -0.000000 -32.862282
LeftUpLeg 15.013627 1.723670 21.373762
LeftLeg 34.764986 -0.000000 -0.000000
LeftFoot 40.962297 21.596257 -14.700418
LeftToeBase 20.710360 -0.000000 -0.000000
RightUpLeg -106.008343 -27.687350 1.026183
RightLeg 25.466357 -0.000000 -0.000000
RightFoot 35.654328 -14.937667 1.901560
RightToeBase 32.664303 -0.000000 -0.000000
2946
root -10.677289 34.580033 -1.401648 371.952874 -72.837340 -464.305218
Spine -69.767407 -22.982829 6.147402
Head -90.305392 1.905671 16.119012
LeftShoulder -13.995268 -0.197585 39.968568
LeftArm 274.222953 -83.447269 -223.376475
LeftForeArm -19.689402 0.000000 -10.674185
LeftHand 18.183938 -0.000000 102.450911
LeftHandThumb1 -26.253704 0.000000 33.147579
RightShoulder -21.846218 45.919626 -45.721728
RightArm 34.208535 41.859057 -14.700997
RightForeArm 40.515242 -0.000000 -16.469294
RightHand 27.590240 -0.000000 -92.196523
RightHandThumb1 -24.326973 -0.000000 -32.862282
LeftUpLeg 15.592245 1.223159 21.415394
LeftLeg 33.977807 -0.000000 -0.000000
LeftFoot 40.700458 21.846707 -14.845758
LeftToeBase 21.010103 -0.000000 -0.000000
RightUpLeg -106.258676 -27.770597 1.604081
RightLeg 24.620159 -0.000000 -0.000000
RightFoot 36.173476 -15.107185 1.970392
RightToeBase 32.743012 -0.000000 -0.000000
2947
root -10.546546 34.763387 -1.426194 371.506182 -72.918085 -465.696349
Spine -68.465438 -23.017408 5.654480
Head -89.624574 1.609001 16.067639
LeftShoulder -14.173405 0.322088 39.956468
LeftArm 271.017059 -84.152044 -220.270715
LeftForeArm -19.800335 0.000000 -10.659459
LeftHand 18.186883 -0.000000 103.012260
LeftHandThumb1 -26.253704 0.000000 33.147579
RightShoulder -21.800187 46.045688 -45.516314
RightArm 35.290529 41.967759 -13.677890
RightForeArm 39.859380 -0.000000 -16.063660
RightHand 27.593941 -0.000000 -92.346032
RightHandThumb1 -24.326973 -0.000000 -32.862282
LeftUpLeg 16.294393 0.715301 21.552496
LeftLeg 33.047208 -0.000000 -0.000000
LeftFoot 40.290954 22.194051 -14.830820
LeftToeBase 21.141302 -0.000000 -0.000000
RightUpLeg -106.391381 -27.841488 2.128400
RightLeg 23.847295 -0.000000 -0.000000
RightFoot 36.780301 -15.225874 2.040848
RightToeBase 32.938266 -0.000000 -0.000000
2948
root -10.416593 34.946891 -1.454934 371.328597 -73.051747 -467.303892
Spine -67.196337 -22.917640 5.104868
Head -88.997070 1.192792 15.938723
LeftShoulder -14.298471 0.964801 39.926125
LeftArm 270.095312 -84.829503 -219.504143
LeftForeArm -20.409517 -0.000000 -10.551723
LeftHand 18.043378 0.000000 103.444174
LeftHandThumb1 -26.253704 0.000000 33.147579
RightShoulder -21.929472 46.287771 -45.546121
RightArm 36.410258 42.200485 -12.296422
RightForeArm 38.604163 -0.000000 -15.261363
RightHand 27.442237 -0.000000 -92.848775
RightHandThumb1 -24.326973 -0.000000 -32.862282
LeftUpLeg 16.996267 0.274346 21.742179
LeftLeg 32.028325 -0.000000 -0.000000
LeftFoot 39.685828 22.565818 -14.569229
LeftToeBase 21.510132 -0.000000 -0.000000
RightUpLeg -106.473750 -27.819863 2.624618
RightLeg 23.027937 -0.000000 -0.000000
RightFoot 37.422163 -15.319505 2.068541
RightToeBase 33.257418 -0.000000 -0.000000
2949
root -10.276233 35.105957 -1.485698 371.210532 -73.100643 -468.342040
Spine -66.721402 -22.775117 4.659125
Head -88.153344 0.555992 15.809333
LeftShoulder -14.092421 1.880421 39.978822
LeftArm 264.299736 -85.096941 -214.360618
LeftForeArm -20.451845 -0.000000 -9.923303
LeftHand 18.161781 -0.000000 103.975809
LeftHandThumb1 -26.253704 0.000000 33.147579
RightShoulder -22.321697 46.661316 -46.142225
RightArm 37.681816 42.003886 -10.474652
RightForeArm 37.295455 -0.000000 -14.555939
RightHand 27.717901 -0.000000 -93.263269
RightHandThumb1 -24.326973 -0.000000 -32.862282
LeftUpLeg 17.005443 -0.115954 21.719733
LeftLeg 31.043484 -0.000000 -0.000000
LeftFoot 39.178293 23.011606 -14.050407
LeftToeBase 21.481790 -0.000000 -0.000000
RightUpLeg -107.047773 -27.869706 3.140290
RightLeg 22.055377 -0.000000 -0.000000
RightFoot 38.210899 -15.375588 2.013384
RightToeBase 33.310930 -0.000000 -0.000000
2950
root -10.126358 35.264872 -1.527314 371.670236 -73.153909 -470.121134
Spine -66.039917 -22.556798 4.295887
Head -87.509664 -0.037578 15.642061
LeftShoulder -14.205858 2.959975 39.790945
LeftArm 252.372966 -85.322921 -202.808600
LeftForeArm -20.458136 0.000000 -9.391569
LeftHand 17.887796 -0.000000 104.513009
LeftHandThumb1 -26.253704 0.000000 33.147579
RightShoulder -22.997515 46.878453 -46.768896
RightArm 39.197657 41.713855 -8.618975
RightForeArm 36.198198 0.000000 -14.020625
RightHand 27.331673 -0.000000 -93.873797
RightHandThumb1 -24.326973 -0.000000 -32.862282
LeftUpLeg 17.125969 -0.548464 21.909797
LeftLeg 30.113883 -0.000000 -0.000000
LeftFoot 38.623205 23.448742 -13.499343
LeftToeBase 21.946575 -0.000000 -0.000000
RightUpLeg -107.295620 -27.843337 3.674579
RightLeg 21.013885 -0.000000 -0.000000
RightFoot 38.841678 -15.365167 1.825113
RightToeBase 33.486659 -0.000000 -0.000000
2951
root -9.975795 35.420790 -1.574619 372.400459 -73.205587 -472.193546
Spine -65.318711 -22.335044 3.949321
Head -86.882415 -0.489627 15.574932
LeftShoulder -14.182414 3.371516 39.658675
LeftArm 249.936281 -86.112537 -200.369427
LeftForeArm -21.017670 -0.000000 -9.146947
LeftHand 17.808637 -0.000000 104.473162
LeftHandThumb1 -26.253704 0.000000 33.147579
RightShoulder -23.496879 46.761049 -47.179436
RightArm 40.408974 41.351926 -7.220722
RightForeArm 35.550729 -0.000000 -13.844277
RightHand 27.397327 -0.000000 -94.043077
RightHandThumb1 -24.326973 -0.000000 -32.862282
LeftUpLeg 17.210443 -1.063632 22.126472
LeftLeg 29.312016 -0.000000 -0.000000
LeftFoot 38.020278 23.917426 -12.957242
LeftToeBase 22.407456 -0.000000 -0.000000
RightUpLeg -107.355160 -27.791090 4.089494
RightLeg 19.925555 -0.000000 -0.000000
RightFoot 39.253897 -15.412525 1.730338
RightToeBase 33.584061 -0.000000 -0.000000
2952
root -9.822239 35.572109 -1.624774 373.271985 -73.232543 -474.391776
Spine -64.646489 -22.134176 3.693199
Head -86.275617 -0.824023 15.510687
LeftShoulder -14.184531 3.783499 39.507516
LeftArm 243.062221 -86.813584 -193.430264
LeftForeArm -21.411616 -0.000000 -8.880011
LeftHand 17.794517 -0.000000 104.378572
LeftHandThumb1 -26.253704 0.000000 33.147579
RightShoulder -23.804373 46.326719 -47.337101
RightArm 41.483449 40.969816 -6.175984
RightForeArm 35.156946 -0.000000 -13.873135
RightHand 26.968827 -0.000000 -94.013233
RightHandThumb1 -24.326973 -0.000000 -32.862282
LeftUpLeg 17.199622 -1.470792 22.417491
LeftLeg 28.644576 -0.000000 -0.000000
LeftFoot 37.509199 24.329639 -12.351131
LeftToeBase 22.854115 -0.000000 -0.000000
RightUpLeg -107.285928 -27.732547 4.425461
RightLeg 18.705700 -0.000000 -0.000000
RightFoot 39.624538 -15.647109 1.570168
RightToeBase 33.733878 -0.000000 -0.000000
